<svg xmlns="http://www.w3.org/2000/svg" viewBox="0 0 800 480" fill="none">
  <rect width="800" height="480" fill="#0F1117"/>
  <rect x="60" y="40" width="680" height="48" rx="8" fill="#161B24"/>
  <rect x="80" y="56" width="100" height="16" rx="4" fill="#34D399"/>
  <rect x="60" y="110" width="440" height="330" rx="8" fill="#161B24"/>
  <polyline points="90,380 130,300 180,320 230,220 280,250 330,180 380,200 430,140 480,160" stroke="#34D399" stroke-width="3" fill="rgba(52,211,153,0.1)"/>
  <rect x="520" y="110" width="220" height="100" rx="8" fill="#161B24"/>
  <rect x="540" y="130" width="80" height="28" rx="4" fill="#34D399" opacity="0.8"/>
  <rect x="540" y="170" width="120" height="8" rx="4" fill="#475569"/>
  <rect x="520" y="230" width="220" height="100" rx="8" fill="#161B24"/>
  <rect x="540" y="250" width="80" height="28" rx="4" fill="#38BDF8" opacity="0.8"/>
  <rect x="520" y="350" width="220" height="90" rx="8" fill="#161B24"/>
  <rect x="540" y="370" width="80" height="28" rx="4" fill="#A78BFA" opacity="0.8"/>
</svg>
