<svg xmlns="http://www.w3.org/2000/svg" viewBox="0 0 800 480" fill="none">
  <rect width="800" height="480" fill="#0F1117"/>
  <rect x="60" y="40" width="200" height="400" rx="12" fill="#161B24"/>
  <rect x="80" y="70" width="80" height="80" rx="40" fill="#A78BFA" opacity="0.2"/>
  <rect x="80" y="170" width="160" height="12" rx="4" fill="#F1F5F9"/>
  <rect x="80" y="190" width="120" height="8" rx="4" fill="#475569"/>
  <rect x="80" y="220" width="160" height="36" rx="8" fill="#1E2530"/>
  <rect x="80" y="270" width="160" height="36" rx="8" fill="#1E2530"/>
  <rect x="80" y="320" width="160" height="36" rx="8" fill="#1E2530"/>
  <rect x="300" y="40" width="440" height="400" rx="12" fill="#161B24"/>
  <rect x="320" y="60" width="120" height="16" rx="4" fill="#A78BFA"/>
  <rect x="320" y="100" width="180" height="180" rx="8" fill="#A78BFA" opacity="0.15"/>
  <rect x="520" y="100" width="180" height="80" rx="8" fill="#1E2530"/>
  <rect x="520" y="200" width="180" height="80" rx="8" fill="#1E2530"/>
  <rect x="320" y="300" width="380" height="120" rx="8" fill="#1E2530"/>
  <rect x="340" y="320" width="80" height="80" rx="8" fill="#A78BFA" opacity="0.3"/>
  <rect x="440" y="330" width="200" height="10" rx="4" fill="#F1F5F9"/>
  <rect x="440" y="350" width="160" height="8" rx="4" fill="#475569"/>
</svg>
