<svg xmlns="http://www.w3.org/2000/svg" viewBox="0 0 800 480" fill="none">
  <rect width="800" height="480" fill="#0F1117"/>
  <rect x="0" y="0" width="800" height="36" fill="#161B24"/>
  <circle cx="20" cy="18" r="5" fill="#FB7185"/><circle cx="36" cy="18" r="5" fill="#FCD34D"/><circle cx="52" cy="18" r="5" fill="#34D399"/>
  <rect x="280" y="10" width="240" height="16" rx="8" fill="#1E2530"/>
  <rect x="60" y="60" width="160" height="360" rx="8" fill="#161B24"/>
  <rect x="80" y="80" width="120" height="8" rx="4" fill="#38BDF8" opacity="0.6"/>
  <rect x="80" y="100" width="100" height="6" rx="3" fill="#334155"/>
  <rect x="80" y="120" width="110" height="6" rx="3" fill="#334155"/>
  <rect x="80" y="140" width="90" height="6" rx="3" fill="#334155"/>
  <rect x="240" y="60" width="500" height="120" rx="8" fill="#161B24"/>
  <rect x="260" y="80" width="200" height="12" rx="4" fill="#F1F5F9"/>
  <rect x="260" y="100" width="300" height="8" rx="4" fill="#475569"/>
  <rect x="260" y="120" width="80" height="28" rx="14" fill="#38BDF8"/>
  <rect x="240" y="200" width="155" height="220" rx="8" fill="#161B24"/>
  <rect x="255" y="215" width="125" height="90" rx="6" fill="#1E2530"/>
  <rect x="255" y="320" width="100" height="8" rx="4" fill="#F1F5F9"/>
  <rect x="255" y="336" width="80" height="6" rx="3" fill="#475569"/>
  <rect x="255" y="360" width="60" height="20" rx="10" fill="#38BDF8" opacity="0.3"/>
  <rect x="405" y="200" width="155" height="220" rx="8" fill="#161B24"/>
  <rect x="420" y="215" width="125" height="90" rx="6" fill="#1E2530"/>
  <rect x="420" y="320" width="100" height="8" rx="4" fill="#F1F5F9"/>
  <rect x="420" y="336" width="80" height="6" rx="3" fill="#475569"/>
  <rect x="570" y="200" width="170" height="220" rx="8" fill="#161B24"/>
  <rect x="585" y="215" width="140" height="90" rx="6" fill="#1E2530"/>
  <rect x="585" y="320" width="110" height="8" rx="4" fill="#F1F5F9"/>
</svg>
