<svg xmlns="http://www.w3.org/2000/svg" viewBox="0 0 800 480" fill="none">
  <rect width="800" height="480" fill="#0F1117"/>
  <rect x="0" y="0" width="180" height="480" fill="#161B24"/>
  <rect x="20" y="30" width="100" height="12" rx="4" fill="#FCD34D" opacity="0.8"/>
  <rect x="20" y="70" width="140" height="8" rx="4" fill="#475569"/>
  <rect x="20" y="90" width="140" height="8" rx="4" fill="#475569"/>
  <rect x="20" y="110" width="140" height="8" rx="4" fill="#475569"/>
  <rect x="200" y="30" width="580" height="48" rx="8" fill="#161B24"/>
  <rect x="220" y="46" width="160" height="16" rx="4" fill="#F1F5F9"/>
  <rect x="200" y="100" width="180" height="120" rx="8" fill="#161B24"/>
  <rect x="220" y="120" width="60" height="20" rx="4" fill="#FCD34D" opacity="0.7"/>
  <rect x="200" y="240" width="180" height="120" rx="8" fill="#161B24"/>
  <rect x="400" y="100" width="380" height="260" rx="8" fill="#161B24"/>
  <rect x="420" y="120" width="340" height="24" rx="4" fill="#1E2530"/>
  <rect x="420" y="160" width="340" height="32" rx="4" fill="#1E2530"/>
  <rect x="420" y="204" width="340" height="32" rx="4" fill="#1E2530"/>
  <rect x="420" y="248" width="340" height="32" rx="4" fill="#1E2530"/>
  <rect x="420" y="292" width="340" height="32" rx="4" fill="#1E2530"/>
  <rect x="200" y="380" width="580" height="70" rx="8" fill="#161B24"/>
</svg>
