<svg xmlns="http://www.w3.org/2000/svg" viewBox="0 0 800 480" fill="none">
  <rect width="800" height="480" fill="#0F1117"/>
  <rect x="280" y="30" width="240" height="420" rx="24" fill="#161B24" stroke="#1E2530" stroke-width="2"/>
  <rect x="300" y="50" width="200" height="28" rx="14" fill="#1E2530"/>
  <rect x="310" y="100" width="180" height="100" rx="12" fill="#1E2530"/>
  <rect x="325" y="120" width="80" height="10" rx="5" fill="#FB7185" opacity="0.7"/>
  <rect x="325" y="140" width="140" height="8" rx="4" fill="#475569"/>
  <rect x="325" y="156" width="120" height="8" rx="4" fill="#475569"/>
  <rect x="310" y="220" width="180" height="60" rx="12" fill="#1E2530"/>
  <rect x="325" y="235" width="150" height="8" rx="4" fill="#F1F5F9"/>
  <rect x="325" y="252" width="100" height="8" rx="4" fill="#475569"/>
  <rect x="310" y="300" width="180" height="60" rx="12" fill="#1E2530"/>
  <rect x="310" y="380" width="85" height="40" rx="20" fill="#FB7185" opacity="0.25"/>
  <rect x="405" y="380" width="85" height="40" rx="20" fill="#38BDF8" opacity="0.25"/>
</svg>
